# xmcd
# 
# Track frame offsets:
#     150
#     21005
#     48160
#     68447
#     103957
#     123470
#     153645
#     195370
#     227715
#     264605
# 
# Disc length: 4328
# 
# Revision: 9
# Processed by: cddbd v1.5.2PL0 Copyright (c) Steve Scherf et al.
# Submitted via: fre:ac v1.0.17
# 
DISCID=7f10e60a
DTITLE=Eric Clapton - One More Car, One More Rider (Disc-2)
DYEAR=2002
DGENRE=Rock
TTITLE0=I Want A Little Girl
TTITLE1=Badge
TTITLE2=Hoochie Coochie Man
TTITLE3=Have You Ever Loved A Woman
TTITLE4=Cocaine
TTITLE5=Wonderful Tonight
TTITLE6=Layla
TTITLE7=Sunshine Of Your Love
TTITLE8=Over The Rainbow
TTITLE9=Badge (Video)
EXTD=Year: 2002 Id3g: 0 YEAR: 2002
EXTT0=
EXTT1=
EXTT2=
EXTT3=
EXTT4=
EXTT5=
EXTT6=
EXTT7=
EXTT8=
EXTT9=
PLAYORDER=
